<svg width="25" height="25" viewBox="0 0 40 40" fill="none" xmlns="http://www.w3.org/2000/svg">
<circle cx="20" cy="20" r="18.5" fill="#6CA062" stroke="#6CA062" stroke-width="3"/>
<path d="M11.4142 18.5858C10.6332 17.8047 9.36684 17.8047 8.58579 18.5858C7.80474 19.3668 7.80474 20.6332 8.58579 21.4142L11.4142 18.5858ZM15.5858 28.4142L17 29.8284L19.8284 27L18.4142 25.5858L15.5858 28.4142ZM8.58579 21.4142L15.5858 28.4142L18.4142 25.5858L11.4142 18.5858L8.58579 21.4142Z" fill="white"/>
<path d="M15.5858 25.5858L14.1716 27L17 29.8284L18.4142 28.4142L15.5858 25.5858ZM31.4142 15.4142C32.1953 14.6332 32.1953 13.3668 31.4142 12.5858C30.6332 11.8047 29.3668 11.8047 28.5858 12.5858L31.4142 15.4142ZM18.4142 28.4142L31.4142 15.4142L28.5858 12.5858L15.5858 25.5858L18.4142 28.4142Z" fill="white"/>
</svg>
