<svg width="34" height="34" viewBox="0 0 34 34" fill="none" xmlns="http://www.w3.org/2000/svg">
<circle cx="17" cy="17" r="15.5" fill="#00462A" stroke="#00462A" stroke-width="3"/>
<path d="M9.91421 15.5858C9.13316 14.8047 7.86684 14.8047 7.08579 15.5858C6.30474 16.3668 6.30474 17.6332 7.08579 18.4142L9.91421 15.5858ZM13.0358 24.3642L14.45 25.7784L17.2784 22.95L15.8642 21.5358L13.0358 24.3642ZM7.08579 18.4142L13.0358 24.3642L15.8642 21.5358L9.91421 15.5858L7.08579 18.4142Z" fill="white"/>
<path d="M13.0355 21.5357L11.6213 22.95L14.4497 25.7784L15.8639 24.3642L13.0355 21.5357ZM26.9139 13.3142C27.695 12.5331 27.695 11.2668 26.9139 10.4857C26.1329 9.70469 24.8665 9.70469 24.0855 10.4857L26.9139 13.3142ZM15.8639 24.3642L26.9139 13.3142L24.0855 10.4857L13.0355 21.5357L15.8639 24.3642Z" fill="white"/>
</svg>
