<svg width="25" height="25" viewBox="0 0 35 35" fill="none" xmlns="http://www.w3.org/2000/svg">
<path d="M15.4583 23.625L25.7396 13.3438L23.6979 11.3021L15.4583 19.5417L11.3021 15.3854L9.26042 17.4271L15.4583 23.625ZM7.29167 30.625C6.48958 30.625 5.80295 30.3394 5.23177 29.7682C4.66059 29.1971 4.375 28.5104 4.375 27.7083V7.29167C4.375 6.48958 4.66059 5.80295 5.23177 5.23177C5.80295 4.66059 6.48958 4.375 7.29167 4.375H27.7083C28.5104 4.375 29.1971 4.66059 29.7682 5.23177C30.3394 5.80295 30.625 6.48958 30.625 7.29167V27.7083C30.625 28.5104 30.3394 29.1971 29.7682 29.7682C29.1971 30.3394 28.5104 30.625 27.7083 30.625H7.29167Z" fill="#00462A"/>
</svg>
